<mxfile host="app.diagrams.net" agent="Mozilla/5.0 (X11; Ubuntu; Linux x86_64; rv:144.0) Gecko/20100101 Firefox/144.0" version="28.2.8">
  <diagram name="Page-1" id="bjVDkqN4jfYfFJxV3ved">
    <mxGraphModel dx="2450" dy="935" grid="1" gridSize="10" guides="1" tooltips="1" connect="1" arrows="1" fold="1" page="1" pageScale="1" pageWidth="850" pageHeight="1100" math="0" shadow="0">
      <root>
        <mxCell id="0" />
        <mxCell id="1" parent="0" />
        <mxCell id="UZWZCJUGc0wgJH4p4jcs-12" value="" style="rounded=0;whiteSpace=wrap;html=1;fillColor=light-dark(#FFFFFF,#FFFFFF);strokeColor=light-dark(#000000,#000000);strokeWidth=7;" vertex="1" parent="1">
          <mxGeometry x="-15" y="50" width="1030" height="410" as="geometry" />
        </mxCell>
        <mxCell id="tC6INBS62KU_Nt3FtVll-1" value="&lt;div style=&quot;font-family: &amp;quot;Droid Sans Mono&amp;quot;, &amp;quot;monospace&amp;quot;, monospace; font-size: 14px; line-height: 19px; white-space: pre;&quot;&gt;&lt;div&gt;&lt;b&gt;&lt;span style=&quot;color: light-dark(rgb(0, 0, 0), rgb(0, 0, 0));&quot;&gt;&lt;font style=&quot;font-size: 30px;&quot;&gt;ros2 launch pallet_truck_navigation map_server.launch.py&lt;/font&gt;&lt;/span&gt;&lt;/b&gt;&lt;/div&gt;&lt;/div&gt;" style="text;html=1;align=center;verticalAlign=middle;whiteSpace=wrap;rounded=0;fontSize=16;" parent="1" vertex="1">
          <mxGeometry x="-13.75" y="70" width="1020" height="30" as="geometry" />
        </mxCell>
        <mxCell id="tC6INBS62KU_Nt3FtVll-15" value="" style="rounded=1;whiteSpace=wrap;html=1;fillColor=none;strokeColor=light-dark(#000000,#000000);strokeWidth=3;" parent="1" vertex="1">
          <mxGeometry x="369" y="170" width="260" height="60" as="geometry" />
        </mxCell>
        <mxCell id="tC6INBS62KU_Nt3FtVll-16" value="&lt;div align=&quot;center&quot;&gt;&lt;span style=&quot;color: light-dark(rgb(0, 0, 0), rgb(0, 0, 0));&quot;&gt;&quot;pallet_truck_navigation&quot;&lt;/span&gt;&lt;/div&gt;&lt;div align=&quot;center&quot;&gt;&lt;span style=&quot;color: light-dark(rgb(0, 0, 0), rgb(0, 0, 0));&quot;&gt;map_server.launch.py&lt;/span&gt;&lt;/div&gt;" style="text;strokeColor=none;fillColor=none;html=1;align=center;verticalAlign=middle;whiteSpace=wrap;rounded=0;fontSize=16;" parent="1" vertex="1">
          <mxGeometry x="436.25" y="180" width="120" height="30" as="geometry" />
        </mxCell>
        <mxCell id="tC6INBS62KU_Nt3FtVll-61" value="" style="endArrow=classic;html=1;rounded=0;fontSize=12;startSize=8;endSize=8;curved=1;strokeColor=light-dark(#000000,#000000);entryX=0.5;entryY=0;entryDx=0;entryDy=0;exitX=1;exitY=0.5;exitDx=0;exitDy=0;strokeWidth=3;" parent="1" source="UZWZCJUGc0wgJH4p4jcs-1" target="tC6INBS62KU_Nt3FtVll-77" edge="1">
          <mxGeometry width="50" height="50" relative="1" as="geometry">
            <mxPoint x="501" y="278" as="sourcePoint" />
            <mxPoint x="494.00000000000045" y="343" as="targetPoint" />
            <Array as="points">
              <mxPoint x="676" y="240" />
            </Array>
          </mxGeometry>
        </mxCell>
        <mxCell id="tC6INBS62KU_Nt3FtVll-68" value="" style="rhombus;whiteSpace=wrap;html=1;fillColor=none;strokeColor=light-dark(#000000,#000000);strokeWidth=3;" parent="1" vertex="1">
          <mxGeometry x="365" y="340" width="270" height="105" as="geometry" />
        </mxCell>
        <mxCell id="tC6INBS62KU_Nt3FtVll-69" value="&lt;div&gt;&lt;span style=&quot;color: light-dark(rgb(0, 0, 0), rgb(0, 0, 0));&quot;&gt;&quot;nav2_lifecycle_manager&quot;&lt;/span&gt;&lt;/div&gt;&lt;div&gt;&lt;span style=&quot;color: light-dark(rgb(0, 0, 0), rgb(0, 0, 0));&quot;&gt;lifecycle_manager&lt;/span&gt;&lt;/div&gt;" style="text;strokeColor=none;fillColor=none;html=1;align=center;verticalAlign=middle;whiteSpace=wrap;rounded=0;fontSize=16;" parent="1" vertex="1">
          <mxGeometry x="441" y="379" width="120" height="30" as="geometry" />
        </mxCell>
        <mxCell id="tC6INBS62KU_Nt3FtVll-70" value="" style="rhombus;whiteSpace=wrap;html=1;fillColor=none;strokeColor=light-dark(#000000,#000000);strokeWidth=3;" parent="1" vertex="1">
          <mxGeometry x="210" y="275" width="240" height="90" as="geometry" />
        </mxCell>
        <mxCell id="tC6INBS62KU_Nt3FtVll-71" value="&lt;div&gt;&lt;span style=&quot;color: light-dark(rgb(0, 0, 0), rgb(0, 0, 0));&quot;&gt;&quot;nav2_map_server&quot;&lt;/span&gt;&lt;/div&gt;&lt;div&gt;&lt;span style=&quot;color: light-dark(rgb(0, 0, 0), rgb(0, 0, 0));&quot;&gt;map_server&lt;/span&gt;&lt;/div&gt;" style="text;strokeColor=none;fillColor=none;html=1;align=center;verticalAlign=middle;whiteSpace=wrap;rounded=0;fontSize=16;" parent="1" vertex="1">
          <mxGeometry x="271" y="305" width="120" height="30" as="geometry" />
        </mxCell>
        <mxCell id="tC6INBS62KU_Nt3FtVll-73" value="" style="endArrow=classic;html=1;rounded=0;fontSize=12;startSize=8;endSize=8;curved=1;strokeColor=light-dark(#000000,#000000);entryX=0.5;entryY=0;entryDx=0;entryDy=0;exitX=0.5;exitY=1;exitDx=0;exitDy=0;strokeWidth=3;" parent="1" source="UZWZCJUGc0wgJH4p4jcs-1" target="tC6INBS62KU_Nt3FtVll-68" edge="1">
          <mxGeometry width="50" height="50" relative="1" as="geometry">
            <mxPoint x="669" y="238" as="sourcePoint" />
            <mxPoint x="669" y="268" as="targetPoint" />
            <Array as="points" />
          </mxGeometry>
        </mxCell>
        <mxCell id="tC6INBS62KU_Nt3FtVll-74" value="" style="endArrow=classic;html=1;rounded=0;fontSize=12;startSize=8;endSize=8;curved=1;strokeColor=light-dark(#000000,#000000);entryX=0.5;entryY=0;entryDx=0;entryDy=0;exitX=0;exitY=0.5;exitDx=0;exitDy=0;strokeWidth=3;" parent="1" source="UZWZCJUGc0wgJH4p4jcs-1" target="tC6INBS62KU_Nt3FtVll-70" edge="1">
          <mxGeometry width="50" height="50" relative="1" as="geometry">
            <mxPoint x="769" y="228" as="sourcePoint" />
            <mxPoint x="769" y="258" as="targetPoint" />
            <Array as="points">
              <mxPoint x="330" y="240" />
            </Array>
          </mxGeometry>
        </mxCell>
        <mxCell id="tC6INBS62KU_Nt3FtVll-77" value="" style="rhombus;whiteSpace=wrap;html=1;fillColor=none;strokeColor=light-dark(#000000,#000000);strokeWidth=3;" parent="1" vertex="1">
          <mxGeometry x="561" y="273.5" width="230" height="93" as="geometry" />
        </mxCell>
        <mxCell id="tC6INBS62KU_Nt3FtVll-78" value="&lt;div&gt;&lt;span style=&quot;color: light-dark(rgb(0, 0, 0), rgb(0, 0, 0));&quot;&gt;&quot;tf2_ros&quot;&lt;/span&gt;&lt;/div&gt;&lt;div&gt;&lt;span style=&quot;color: light-dark(rgb(0, 0, 0), rgb(0, 0, 0));&quot;&gt;static_transform_publisher&lt;/span&gt;&lt;/div&gt;" style="text;strokeColor=none;fillColor=none;html=1;align=center;verticalAlign=middle;whiteSpace=wrap;rounded=0;fontSize=16;" parent="1" vertex="1">
          <mxGeometry x="617" y="294.5" width="120" height="30" as="geometry" />
        </mxCell>
        <mxCell id="UZWZCJUGc0wgJH4p4jcs-1" value="" style="rounded=1;whiteSpace=wrap;html=1;fillColor=none;strokeColor=light-dark(#000000,#000000);strokeWidth=3;" vertex="1" parent="1">
          <mxGeometry x="400" y="230" width="200" height="20" as="geometry" />
        </mxCell>
        <mxCell id="UZWZCJUGc0wgJH4p4jcs-2" value="&lt;span style=&quot;color: light-dark(rgb(0, 0, 0), rgb(0, 0, 0));&quot;&gt;&lt;font style=&quot;font-size: 10px;&quot;&gt;for each robot&lt;/font&gt;&lt;/span&gt;" style="text;strokeColor=none;fillColor=none;html=1;align=center;verticalAlign=middle;whiteSpace=wrap;rounded=0;fontSize=16;" vertex="1" parent="1">
          <mxGeometry x="439" y="220" width="120" height="30" as="geometry" />
        </mxCell>
        <mxCell id="UZWZCJUGc0wgJH4p4jcs-3" value="" style="endArrow=none;dashed=1;html=1;rounded=0;strokeColor=light-dark(#000000,#000000);exitX=1;exitY=1;exitDx=0;exitDy=0;entryX=0;entryY=0;entryDx=0;entryDy=0;" edge="1" parent="1" source="tC6INBS62KU_Nt3FtVll-70" target="tC6INBS62KU_Nt3FtVll-68">
          <mxGeometry width="50" height="50" relative="1" as="geometry">
            <mxPoint x="430" y="340" as="sourcePoint" />
            <mxPoint x="480" y="290" as="targetPoint" />
          </mxGeometry>
        </mxCell>
        <mxCell id="UZWZCJUGc0wgJH4p4jcs-4" value="" style="rounded=0;whiteSpace=wrap;html=1;fillColor=none;strokeColor=light-dark(#000000,#000000);strokeWidth=3;" vertex="1" parent="1">
          <mxGeometry x="750" y="120" width="199.25" height="140" as="geometry" />
        </mxCell>
        <mxCell id="UZWZCJUGc0wgJH4p4jcs-5" value="&lt;div align=&quot;left&quot;&gt;&lt;span style=&quot;color: light-dark(rgb(0, 0, 0), rgb(0, 0, 0));&quot;&gt;Legend:&lt;/span&gt;&lt;/div&gt;&lt;div align=&quot;left&quot;&gt;&lt;span style=&quot;color: light-dark(rgb(0, 0, 0), rgb(0, 0, 0));&quot;&gt;&lt;br&gt;&lt;/span&gt;&lt;/div&gt;&lt;div align=&quot;left&quot;&gt;&lt;span style=&quot;color: light-dark(rgb(0, 0, 0), rgb(0, 0, 0));&quot;&gt;&lt;span style=&quot;white-space: pre;&quot;&gt;&quot;(arg)&quot;&lt;/span&gt;&lt;span style=&quot;white-space: pre;&quot;&gt;&#x9;&lt;span style=&quot;white-space: pre;&quot;&gt;&#x9;&lt;/span&gt;&lt;/span&gt;= pkg name&lt;/span&gt;&lt;/div&gt;&lt;div align=&quot;left&quot;&gt;&lt;span style=&quot;color: light-dark(rgb(0, 0, 0), rgb(0, 0, 0));&quot;&gt;&lt;br&gt;&lt;/span&gt;&lt;/div&gt;&lt;div align=&quot;left&quot;&gt;&lt;span style=&quot;color: light-dark(rgb(0, 0, 0), rgb(0, 0, 0));&quot;&gt;&lt;span style=&quot;white-space: pre;&quot;&gt;&#x9;&lt;/span&gt;&lt;span style=&quot;white-space: pre;&quot;&gt;&#x9;&lt;span style=&quot;white-space: pre;&quot;&gt;&#x9;&lt;/span&gt;&lt;/span&gt;= launch file&lt;/span&gt;&lt;/div&gt;&lt;div align=&quot;left&quot;&gt;&lt;span style=&quot;color: light-dark(rgb(0, 0, 0), rgb(0, 0, 0));&quot;&gt;&lt;br&gt;&lt;/span&gt;&lt;/div&gt;&lt;div align=&quot;left&quot;&gt;&lt;span style=&quot;color: light-dark(rgb(0, 0, 0), rgb(0, 0, 0));&quot;&gt;&lt;span style=&quot;white-space: pre;&quot;&gt;&#x9;&lt;/span&gt;&lt;span style=&quot;white-space: pre;&quot;&gt;&#x9;&lt;/span&gt;&lt;span style=&quot;white-space: pre;&quot;&gt;&#x9;&lt;/span&gt;= node&lt;/span&gt;&lt;/div&gt;&lt;div align=&quot;left&quot;&gt;&lt;span style=&quot;color: light-dark(rgb(0, 0, 0), rgb(0, 0, 0));&quot;&gt;&lt;br&gt;&lt;/span&gt;&lt;/div&gt;&lt;div align=&quot;left&quot;&gt;&lt;span style=&quot;color: light-dark(rgb(0, 0, 0), rgb(0, 0, 0));&quot;&gt;&lt;span style=&quot;white-space: pre;&quot;&gt;&#x9;&lt;/span&gt;&lt;span style=&quot;white-space: pre;&quot;&gt;&#x9;&lt;/span&gt;&lt;span style=&quot;white-space: pre;&quot;&gt;&#x9;&lt;/span&gt;= semi dependant&lt;/span&gt;&lt;/div&gt;" style="text;html=1;whiteSpace=wrap;strokeColor=none;fillColor=none;align=left;verticalAlign=middle;rounded=0;" vertex="1" parent="1">
          <mxGeometry x="758.25" y="154" width="211" height="70" as="geometry" />
        </mxCell>
        <mxCell id="UZWZCJUGc0wgJH4p4jcs-6" value="" style="rounded=1;whiteSpace=wrap;html=1;fillColor=none;strokeColor=light-dark(#000000,#000000);strokeWidth=2;" vertex="1" parent="1">
          <mxGeometry x="760.75" y="182.5" width="49.25" height="15" as="geometry" />
        </mxCell>
        <mxCell id="UZWZCJUGc0wgJH4p4jcs-7" value="" style="rhombus;whiteSpace=wrap;html=1;fillColor=none;strokeColor=light-dark(#000000,#000000);strokeWidth=2;" vertex="1" parent="1">
          <mxGeometry x="758.25" y="206" width="55" height="25" as="geometry" />
        </mxCell>
        <mxCell id="UZWZCJUGc0wgJH4p4jcs-8" value="" style="endArrow=none;dashed=1;html=1;rounded=0;strokeColor=light-dark(#000000,#000000);entryX=0.759;entryY=0.411;entryDx=0;entryDy=0;entryPerimeter=0;" edge="1" parent="1">
          <mxGeometry width="50" height="50" relative="1" as="geometry">
            <mxPoint x="770.08" y="249.43" as="sourcePoint" />
            <mxPoint x="801.4100000000002" y="249.58999999999997" as="targetPoint" />
          </mxGeometry>
        </mxCell>
        <mxCell id="UZWZCJUGc0wgJH4p4jcs-9" value="&lt;span style=&quot;color: light-dark(rgb(0, 0, 0), rgb(0, 0, 0));&quot;&gt;ROBOTS&lt;/span&gt;" style="text;strokeColor=none;fillColor=none;html=1;align=center;verticalAlign=middle;whiteSpace=wrap;rounded=0;fontSize=16;" vertex="1" parent="1">
          <mxGeometry x="439" y="120" width="120" height="30" as="geometry" />
        </mxCell>
        <mxCell id="UZWZCJUGc0wgJH4p4jcs-10" value="" style="endArrow=classic;html=1;rounded=0;fontSize=12;startSize=8;endSize=8;curved=1;strokeColor=light-dark(#000000,#000000);entryX=0.5;entryY=0;entryDx=0;entryDy=0;exitX=0.5;exitY=1;exitDx=0;exitDy=0;strokeWidth=3;" edge="1" parent="1" source="UZWZCJUGc0wgJH4p4jcs-9" target="tC6INBS62KU_Nt3FtVll-15">
          <mxGeometry width="50" height="50" relative="1" as="geometry">
            <mxPoint x="460" y="150" as="sourcePoint" />
            <mxPoint x="460" y="240" as="targetPoint" />
            <Array as="points" />
          </mxGeometry>
        </mxCell>
      </root>
    </mxGraphModel>
  </diagram>
</mxfile>
